<svg xmlns="http://www.w3.org/2000/svg" width="800" height="480" viewBox="0 0 800 480" font-family="system-ui, -apple-system, sans-serif">
        <rect width="100%" height="100%" fill="#0a0c10"/>
        
        <!-- Header -->
        <text x="400" y="45" text-anchor="middle" fill="#6366f1" font-size="10" font-weight="800" letter-spacing="2">TRANSPARENT PLANS</text>
        <text x="400" y="78" text-anchor="middle" fill="#ffffff" font-size="24" font-weight="900">High-Converting 3-Tier SaaS Pricing Table with Annual Toggle</text>
        
        <!-- Toggle Monthly/Annual -->
        <rect x="300" y="98" width="200" height="32" rx="16" fill="#151822"/>
        <rect x="303" y="101" width="94" height="26" rx="13" fill="#6366f1"/>
        <text x="350" y="118" text-anchor="middle" fill="#ffffff" font-size="10" font-weight="700">MONTHLY</text>
        <text x="450" y="118" text-anchor="middle" fill="rgba(255,255,255,0.6)" font-size="10" font-weight="700">ANNUAL -20%</text>

        <!-- Tier 1: Starter -->
        <rect x="40" y="145" width="220" height="305" rx="12" fill="#10141e" stroke="rgba(255,255,255,0.08)"/>
        <text x="65" y="180" fill="rgba(255,255,255,0.7)" font-size="13" font-weight="700">Starter</text>
        <text x="65" y="215" fill="#ffffff" font-size="28" font-weight="900">$19</text>
        <text x="120" y="215" fill="rgba(255,255,255,0.4)" font-size="11">/ month</text>
        <text x="65" y="235" fill="rgba(255,255,255,0.5)" font-size="10">Essential tokens &amp; components</text>
        <line x1="65" y1="250" x2="235" y2="250" stroke="rgba(255,255,255,0.08)"/>
        
        <circle cx="72" cy="275" r="4" fill="#6366f1"/>
        <text x="86" y="279" fill="#e2e8f0" font-size="11">5 Workspaces</text>
        <circle cx="72" cy="300" r="4" fill="#6366f1"/>
        <text x="86" y="304" fill="#e2e8f0" font-size="11">1,000 Exports / mo</text>
        <circle cx="72" cy="325" r="4" fill="#6366f1"/>
        <text x="86" y="329" fill="#e2e8f0" font-size="11">Community Support</text>

        <rect x="65" y="380" width="170" height="36" rx="6" fill="rgba(255,255,255,0.06)" stroke="rgba(255,255,255,0.15)"/>
        <text x="150" y="403" text-anchor="middle" fill="#ffffff" font-size="11" font-weight="700">Start Free Trial</text>

        <!-- Tier 2: Pro (Featured) -->
        <rect x="280" y="135" width="240" height="325" rx="14" fill="#151b2e" stroke="#6366f1" stroke-width="2"/>
        <rect x="360" y="125" width="80" height="20" rx="10" fill="#6366f1"/>
        <text x="400" y="138" text-anchor="middle" fill="#ffffff" font-size="8" font-weight="800">MOST POPULAR</text>

        <text x="305" y="180" fill="#a5b4fc" font-size="13" font-weight="700">Professional</text>
        <text x="305" y="215" fill="#ffffff" font-size="32" font-weight="900">$49</text>
        <text x="365" y="215" fill="rgba(255,255,255,0.4)" font-size="11">/ month</text>
        <text x="305" y="235" fill="rgba(255,255,255,0.5)" font-size="10">Full prompt suite &amp; vault access</text>
        <line x1="305" y1="250" x2="495" y2="250" stroke="rgba(99,102,241,0.2)"/>

        <circle cx="312" cy="275" r="4" fill="#10b981"/>
        <text x="326" y="279" fill="#ffffff" font-size="11" font-weight="600">Unlimited Workspaces</text>
        <circle cx="312" cy="300" r="4" fill="#10b981"/>
        <text x="326" y="304" fill="#ffffff" font-size="11" font-weight="600">50,000 Exports / mo</text>
        <circle cx="312" cy="325" r="4" fill="#10b981"/>
        <text x="326" y="329" fill="#ffffff" font-size="11" font-weight="600">Custom Brand Kits</text>
        <circle cx="312" cy="350" r="4" fill="#10b981"/>
        <text x="326" y="354" fill="#ffffff" font-size="11" font-weight="600">Priority 24/7 SLA</text>

        <rect x="305" y="390" width="190" height="38" rx="8" fill="#6366f1"/>
        <text x="400" y="414" text-anchor="middle" fill="#ffffff" font-size="12" font-weight="800">Upgrade to Pro</text>

        <!-- Tier 3: Enterprise -->
        <rect x="540" y="145" width="220" height="305" rx="12" fill="#10141e" stroke="rgba(255,255,255,0.08)"/>
        <text x="565" y="180" fill="rgba(255,255,255,0.7)" font-size="13" font-weight="700">Enterprise</text>
        <text x="565" y="215" fill="#ffffff" font-size="28" font-weight="900">$199</text>
        <text x="635" y="215" fill="rgba(255,255,255,0.4)" font-size="11">/ month</text>
        <text x="565" y="235" fill="rgba(255,255,255,0.5)" font-size="10">Dedicated infrastructure</text>
        <line x1="565" y1="250" x2="735" y2="250" stroke="rgba(255,255,255,0.08)"/>

        <circle cx="572" cy="275" r="4" fill="#6366f1"/>
        <text x="586" y="279" fill="#e2e8f0" font-size="11">Dedicated Private VPC</text>
        <circle cx="572" cy="300" r="4" fill="#6366f1"/>
        <text x="586" y="304" fill="#e2e8f0" font-size="11">SSO &amp; Okta SAML</text>
        <circle cx="572" cy="325" r="4" fill="#6366f1"/>
        <text x="586" y="329" fill="#e2e8f0" font-size="11">Custom Model Fine-tuning</text>

        <rect x="565" y="380" width="170" height="36" rx="6" fill="rgba(255,255,255,0.06)" stroke="rgba(255,255,255,0.15)"/>
        <text x="650" y="403" text-anchor="middle" fill="#ffffff" font-size="11" font-weight="700">Contact Sales</text>
      </svg>